<?xml version="1.0" encoding="utf-8"?>
<!-- Generator: Adobe Illustrator 19.2.0, SVG Export Plug-In . SVG Version: 6.00 Build 0)  -->
<svg version="1.1" id="Layer_1" xmlns="http://www.w3.org/2000/svg" xmlns:xlink="http://www.w3.org/1999/xlink" x="0px" y="0px"
	 viewBox="0 0 744.8 125.6" enable-background="new 0 0 744.8 125.6" xml:space="preserve">
<g>
	<path fill="#FF6629" d="M0,4.2h56.7v17H19.3v20.7H49v16.8H19.3v36.2H0V4.2z"/>
	<path fill="#FF6629" d="M77.6,0c6.2,0,11.2,4.6,11.2,10.7s-5,10.8-11.2,10.8s-11.5-4.7-11.5-10.8S71.5,0,77.6,0z M86.7,94.9H68.6
		V33.4h18.2V94.9z"/>
	<path d="M103.6,94.9V0h18.2v40.9c3-5.7,10.4-8.8,18-8.8c15.8,0,29.7,12.5,29.7,32.2c0,19.3-14,31.8-29.7,31.8c-7.6,0-15-3.3-18-8.9
		v7.6H103.6z M136.3,78.8c7.8,0,14.2-5.8,14.2-14.9c0-8.8-6.4-14.6-14.2-14.6c-7.5,0-14.2,5.4-14.2,14.6
		C122.1,72.8,128.7,78.8,136.3,78.8z"/>
	<path d="M239.3,83.7c-6.2,9.2-17.6,12.5-28,12.5c-17.6,0-32.1-12.9-32.1-32.2s14.5-31.8,32.1-31.8c17.5,0,31.5,13,31.5,32.4
		c0,1.6-0.1,4.1-0.3,5.7h-45c0.9,7.1,8.7,10.3,15.1,10.3c5,0,10.4-1.8,13.4-5.8L239.3,83.7z M224.3,58.7
		c-0.9-7.5-7.8-10.5-12.9-10.5c-5.1,0-12.1,2.8-13.7,10.5H224.3z"/>
	<path d="M273.5,94.9h-18.3V33.4h18.3v14.9c3.2-11.4,11.1-16.2,17.4-16.2c4.3,0,7.6,0.8,10.5,2.2l-3.3,16.5
		c-3.3-1.6-6.4-1.8-9.3-1.8c-10.5,0-15.3,8.3-15.3,24.5V94.9z"/>
	<path d="M361.4,4.2v90.7h-19.2V4.2H361.4z"/>
	<path d="M398.8,94.9h-18.3V33.4h18.3v8.9c3.3-6.2,10.5-10.3,17.8-10.3c13.8,0,22.5,8.6,22.5,26.1v36.7c-3,0-15.4,0-18.3,0V62.1
		c0-8.2-4.5-12.2-10.7-12.2c-6.4,0-11.3,3.2-11.3,12.5V94.9z"/>
	<path d="M471.2,69.6c-18.4-5-18.6-14.3-18.4-20c0.1-9.1,11.1-17.5,24-17.5c12.2,0,25.1,5.4,25.3,20.4h-17.2c-0.1-4.6-4.1-5.4-7-5.4
		c-3.9,0-6.6,1.8-6.4,4.6c0.1,1.8,1.7,3.7,5.4,4.6l10.4,2.8c14.9,4.1,16.7,14,16.7,17.9c0,13-13.7,19.2-26.6,19.2
		c-12.5,0-25.5-7.5-25.7-21.2h17.1c0.1,3.6,4.1,7.1,9.1,7.1c4.1-0.1,7.5-2,7.5-5.1c0-2.6-1.6-4.1-6.1-5.3L471.2,69.6z"/>
	<path d="M534.9,94.9h-18.2V33.4h18.2V94.9z"/>
	<path d="M525.9,5c6.2,0,11.2,4.6,11.2,10.7s-5,10.8-11.2,10.8s-11.5-4.7-11.5-10.8S519.7,5,525.9,5z"/>
	<path d="M580.1,109.1c14,0,17.8-9.6,17-21.8c-2.9,5.7-10.8,8.9-18.4,8.9c-15.8,0-30.7-12.5-30.7-31.8c0-19.7,14.9-32.2,30.7-32.2
		c7.6,0,15.4,3.3,18.4,8.9v-7.6h17.8v52.9c0,26.5-12.9,39.2-34.7,39.2c-13.6,0-25.1-7.6-30.3-19.1c4.6-2.2,10.1-5,14.7-7.2
		C566.7,104.9,573.9,109.1,580.1,109.1z M581.8,49.5c-7.8,0-14.7,5.8-14.7,14.5c0,9.2,7,15,14.7,15c7.5,0,14.9-6.1,14.9-15
		C596.7,54.7,589.5,49.5,581.8,49.5z"/>
	<path d="M650,94.9h-18.3V0H650v43c2.5-7.6,11.5-10.9,17.2-10.9c16.2,0,24.6,10.8,24.6,29.3v33.4c-3,0-15.3,0-18.3,0V62.1
		c0-8-5.8-12.2-11.3-12.2c-5.8,0-12.2,3.2-12.2,12.5V94.9z"/>
	<path d="M744.8,33.4v14.5h-12.9v47h-18.2v-47h-11.2V33.4h11.2V9.9h18.2v23.6H744.8z"/>
</g>
</svg>
